<svg width="816" height="836" viewBox="0 0 816 836" fill="none" xmlns="http://www.w3.org/2000/svg">
<rect y="82" width="816" height="754" fill="white"/>
<path d="M337.142 602.896C364.107 586.192 374.562 565.775 376.419 557.655H370.291V545H421.545V557.655H414.303C422.102 580.687 444.851 597.412 455.251 602.896V616.184H465V688H326V616.184H337.142V602.896Z" fill="#FFCC15" stroke="black" stroke-width="4"/>
<mask id="path-3-inside-1_345_757" fill="white">
<path d="M532 278C532 351.73 517.619 422.441 492.02 474.576C466.421 526.711 431.702 556 395.5 556C359.298 556 324.579 526.711 298.98 474.576C273.381 422.441 259 351.73 259 278L395.5 278H532Z"/>
</mask>
<path d="M532 278C532 351.73 517.619 422.441 492.02 474.576C466.421 526.711 431.702 556 395.5 556C359.298 556 324.579 526.711 298.98 474.576C273.381 422.441 259 351.73 259 278L395.5 278H532Z" fill="#FFCC15" stroke="black" stroke-width="8" mask="url(#path-3-inside-1_345_757)"/>
<line y1="-2" x2="236.11" y2="-2" transform="matrix(0.999991 -0.00423531 0.0036027 0.999994 260 301)" stroke="black" stroke-width="4"/>
<rect x="346" y="547" width="100" height="17" fill="#FFCC15" stroke="black" stroke-width="4"/>
<path d="M355 340H347L348.5 348H339L343 356.5L334.5 359L339.5 366L331.5 369.5L337.5 376.5L331 381.5L337.5 386.5L331.5 392.5L339.5 397.5L335 403.5L343 406.5L340 414.5L348.5 415.5L346 424L355 423L354 432L363 430.5L363.5 438L371.5 435.5L374.5 443L381.5 439L385.5 446L391.5 440.5L396.5 447L401 440L407.5 446L412 439L419 443L421.5 435L430 437.5V430L438 431.5V423L447 423.5L445 415L453 414L450 406L458 403.5L453.5 397.5L461 392.5L455.5 387L461.5 381.5L455.5 376.5L461.5 370.5L453 366.5L458 359L450 356.5L453 349L444.5 347.5L447 340H438V332L429.5 334V325L420.5 328L418.5 319.5L411.5 325L407.5 316.5L401.5 323L396.5 315.5L391 323L385 316.5L381.5 325L374 320L372 328L363 325V334L355 332V340Z" fill="white" stroke="black" stroke-width="3"/>
<ellipse rx="51.8582" ry="51.3596" transform="matrix(0.999996 -0.00271113 0.00276403 0.999996 396 382.5)" fill="#FF7676"/>
<ellipse rx="43.88" ry="43.4581" transform="matrix(0.999996 -0.00271113 0.00276403 0.999996 395.978 382.478)" fill="white"/>
<ellipse rx="31.9128" ry="31.6059" transform="matrix(0.999996 -0.00271113 0.00276403 0.999996 395.945 382.446)" fill="#FF7676"/>
<ellipse rx="23.9346" ry="23.7044" transform="matrix(0.999996 -0.00271113 0.00276403 0.999996 395.924 382.424)" fill="white"/>
<ellipse rx="11.9673" ry="11.8514" transform="matrix(0.999996 -0.00271113 0.00276403 0.999996 395.891 382.391)" fill="#FF7676"/>
<path d="M340 486C340.5 485 351.333 456.167 354.5 440L360 448.5L368 444.5L370 454L378.5 448.5L382 456L389 450.5C390 450 390.224 451.336 392 454C393 455.5 384 485.333 378.5 500.5L364 483L340 486Z" fill="white" stroke="black" stroke-width="3"/>
<path d="M454.077 486C453.577 485 442.743 456.167 439.577 440L434.077 448.5L426.077 444.5L424.077 454L415.577 448.5L412.077 456L405.077 450.5C404.077 450 403.853 451.336 402.077 454C401.077 455.5 410.077 485.333 415.577 500.5L430.077 483L454.077 486Z" fill="white" stroke="black" stroke-width="3"/>
<path d="M394.666 381.395L404.029 381.868L399.411 389.48L394.666 381.395Z" fill="black"/>
<line x1="399.473" y1="384.119" x2="572.474" y2="477.119" stroke="black" stroke-width="2"/>
<path d="M557.574 458.087L541.894 458.287L573.471 474.887L587.098 474.033L557.574 458.087Z" fill="#FF7676" stroke="black"/>
<path d="M548.402 475.349L540 462.108L571.158 479.482L577.89 491.36L548.402 475.349Z" fill="#FF7676" stroke="black"/>
<path d="M172.6 264.624L170.056 256.944H153.64L150.28 264.624L145.288 264L159.112 225.6L166.552 227.424L165.544 229.68L179.944 263.952L172.6 264.624ZM163 235.536L155.512 252.624L168.184 251.232L163 235.536ZM206.035 260.16C205.139 261.44 203.779 262.496 201.955 263.328C200.131 264.128 198.067 264.528 195.763 264.528C193.299 264.528 191.011 264.016 188.899 262.992C186.787 261.936 185.075 260.384 183.763 258.336C182.483 256.288 181.843 253.728 181.843 250.656C181.843 247.744 182.451 245.264 183.667 243.216C184.883 241.136 186.531 239.552 188.611 238.464C190.723 237.344 193.107 236.784 195.763 236.784C197.907 236.784 199.859 237.152 201.619 237.888C203.411 238.592 204.803 239.568 205.795 240.816L204.163 244.464C203.363 243.632 202.243 242.944 200.803 242.4C199.363 241.856 197.987 241.584 196.675 241.584C195.171 241.584 193.795 241.936 192.547 242.64C191.299 243.344 190.307 244.384 189.571 245.76C188.867 247.104 188.515 248.736 188.515 250.656C188.515 253.536 189.299 255.76 190.867 257.328C192.435 258.896 194.419 259.68 196.819 259.68C198.387 259.68 199.843 259.424 201.187 258.912C202.563 258.4 203.651 257.696 204.451 256.8L206.035 260.16ZM229.266 264.672V246.24C229.266 244.64 228.77 243.424 227.778 242.592C226.818 241.728 225.65 241.296 224.274 241.296C222.898 241.296 221.634 241.664 220.482 242.4C219.362 243.136 218.578 244.208 218.13 245.616V264L212.274 264.624L211.314 226.56L218.13 225.6V240.096C218.77 239.136 219.73 238.352 221.01 237.744C222.322 237.104 224.034 236.784 226.146 236.784C228.002 236.784 229.65 237.168 231.09 237.936C232.562 238.672 233.73 239.696 234.594 241.008C235.458 242.32 235.89 243.84 235.89 245.568V246.096L234.93 264L229.266 264.672ZM250.499 229.536C250.499 230.656 250.099 231.616 249.299 232.416C248.499 233.216 247.539 233.616 246.419 233.616C245.299 233.616 244.339 233.216 243.539 232.416C242.739 231.616 242.339 230.656 242.339 229.536C242.339 228.416 242.739 227.456 243.539 226.656C244.339 225.856 245.299 225.456 246.419 225.456C247.539 225.456 248.499 225.856 249.299 226.656C250.099 227.456 250.499 228.416 250.499 229.536ZM243.011 264.672V236.544L249.875 237.36L248.915 264L243.011 264.672ZM279.877 259.296C278.949 260.544 277.957 261.552 276.901 262.32C275.877 263.088 274.693 263.648 273.349 264C272.005 264.352 270.357 264.528 268.405 264.528C265.621 264.528 263.237 263.92 261.253 262.704C259.269 261.456 257.749 259.792 256.693 257.712C255.637 255.6 255.109 253.248 255.109 250.656C255.109 248.032 255.653 245.68 256.741 243.6C257.829 241.488 259.349 239.824 261.301 238.608C263.285 237.392 265.589 236.784 268.213 236.784C270.773 236.784 272.965 237.376 274.789 238.56C276.645 239.712 278.069 241.376 279.061 243.552C280.053 245.696 280.549 248.256 280.549 251.232V252.048H263.173L262.117 248.304L273.925 247.344C273.829 245.648 273.349 244.272 272.485 243.216C271.653 242.128 270.309 241.584 268.453 241.584C266.309 241.584 264.533 242.384 263.125 243.984C261.749 245.552 261.061 247.792 261.061 250.704C261.061 252.784 261.445 254.512 262.213 255.888C263.013 257.232 264.005 258.24 265.189 258.912C266.405 259.552 267.621 259.872 268.837 259.872C270.885 259.872 272.709 259.536 274.309 258.864C275.941 258.16 277.221 257.216 278.149 256.032L279.877 259.296ZM293.955 264.624L282.483 237.888L289.779 236.592L296.691 257.04L304.227 236.544L309.075 238.08L299.571 264L293.955 264.624ZM335.892 259.296C334.964 260.544 333.972 261.552 332.916 262.32C331.892 263.088 330.708 263.648 329.364 264C328.02 264.352 326.372 264.528 324.42 264.528C321.636 264.528 319.252 263.92 317.268 262.704C315.284 261.456 313.764 259.792 312.708 257.712C311.652 255.6 311.124 253.248 311.124 250.656C311.124 248.032 311.668 245.68 312.756 243.6C313.844 241.488 315.364 239.824 317.316 238.608C319.3 237.392 321.604 236.784 324.228 236.784C326.788 236.784 328.98 237.376 330.804 238.56C332.66 239.712 334.084 241.376 335.076 243.552C336.068 245.696 336.564 248.256 336.564 251.232V252.048H319.188L318.132 248.304L329.94 247.344C329.844 245.648 329.364 244.272 328.5 243.216C327.668 242.128 326.324 241.584 324.468 241.584C322.324 241.584 320.548 242.384 319.14 243.984C317.764 245.552 317.076 247.792 317.076 250.704C317.076 252.784 317.46 254.512 318.228 255.888C319.028 257.232 320.02 258.24 321.204 258.912C322.42 259.552 323.636 259.872 324.852 259.872C326.9 259.872 328.724 259.536 330.324 258.864C331.956 258.16 333.236 257.216 334.164 256.032L335.892 259.296ZM371.811 264.624V246.72C371.811 243.488 370.515 241.872 367.923 241.872C367.123 241.872 366.419 242.144 365.811 242.688C365.203 243.2 364.723 243.856 364.371 244.656C364.051 245.456 363.859 246.272 363.795 247.104L362.835 264L357.027 264.624V246.72C357.027 245.12 356.755 243.92 356.211 243.12C355.667 242.288 354.771 241.872 353.523 241.872C352.435 241.872 351.459 242.224 350.595 242.928C349.731 243.632 349.123 244.544 348.771 245.664V264L342.915 264.624L341.955 236.544L348.771 237.36V240.432C349.315 239.28 350.211 238.384 351.459 237.744C352.707 237.104 354.227 236.784 356.019 236.784C357.715 236.784 359.171 237.168 360.387 237.936C361.635 238.672 362.515 239.68 363.027 240.96C363.571 239.68 364.483 238.672 365.763 237.936C367.043 237.168 368.627 236.784 370.515 236.784C372.083 236.784 373.475 237.12 374.691 237.792C375.907 238.464 376.867 239.408 377.571 240.624C378.275 241.84 378.627 243.28 378.627 244.944V245.568L377.667 264L371.811 264.624ZM408.736 259.296C407.808 260.544 406.816 261.552 405.76 262.32C404.736 263.088 403.552 263.648 402.208 264C400.864 264.352 399.216 264.528 397.264 264.528C394.48 264.528 392.096 263.92 390.112 262.704C388.128 261.456 386.608 259.792 385.552 257.712C384.496 255.6 383.968 253.248 383.968 250.656C383.968 248.032 384.512 245.68 385.6 243.6C386.688 241.488 388.208 239.824 390.16 238.608C392.144 237.392 394.448 236.784 397.072 236.784C399.632 236.784 401.824 237.376 403.648 238.56C405.504 239.712 406.928 241.376 407.92 243.552C408.912 245.696 409.408 248.256 409.408 251.232V252.048H392.032L390.976 248.304L402.784 247.344C402.688 245.648 402.208 244.272 401.344 243.216C400.512 242.128 399.168 241.584 397.312 241.584C395.168 241.584 393.392 242.384 391.984 243.984C390.608 245.552 389.92 247.792 389.92 250.704C389.92 252.784 390.304 254.512 391.072 255.888C391.872 257.232 392.864 258.24 394.048 258.912C395.264 259.552 396.48 259.872 397.696 259.872C399.744 259.872 401.568 259.536 403.168 258.864C404.8 258.16 406.08 257.216 407.008 256.032L408.736 259.296ZM432.751 264.624V246.72C432.751 245.12 432.255 243.904 431.263 243.072C430.303 242.208 429.135 241.776 427.759 241.776C426.383 241.776 425.119 242.144 423.967 242.88C422.847 243.616 422.063 244.688 421.615 246.096V264L415.759 264.624L414.799 236.544L421.615 237.36V240.48C422.255 239.264 423.199 238.352 424.447 237.744C425.727 237.104 427.471 236.784 429.679 236.784C431.631 236.784 433.343 237.2 434.815 238.032C436.319 238.864 437.471 240 438.271 241.44C439.103 242.848 439.471 244.448 439.375 246.24L438.415 264L432.751 264.624ZM458.495 264.528C454.783 264.528 452.095 263.792 450.431 262.32C448.767 260.848 447.935 258.72 447.935 255.936V241.824H444.287L443.327 238.128L447.935 237.648V229.008L454.703 229.968L454.463 236.976L459.263 236.496V241.824H454.271L453.791 255.072V255.552C453.791 257.12 454.191 258.368 454.991 259.296C455.823 260.192 457.311 260.64 459.455 260.64L458.495 264.528ZM504.4 264.624V247.632H489.568V264L483.328 264.624L482.368 225.6L489.568 226.56V242.832L504.4 241.632V225.6L511.648 226.56L510.688 264L504.4 264.624ZM542.128 264.48C540.176 263.424 538.912 262.064 538.336 260.4C537.888 261.264 537.184 262 536.224 262.608C535.264 263.216 534.16 263.68 532.912 264C531.696 264.352 530.448 264.528 529.168 264.528C526.544 264.528 524.448 263.68 522.88 261.984C521.344 260.256 520.496 258.08 520.336 255.456L519.376 236.544L526.192 237.36V254.352C526.192 255.984 526.624 257.216 527.488 258.048C528.352 258.88 529.52 259.296 530.992 259.296C532.368 259.296 533.616 258.928 534.736 258.192C535.888 257.456 536.672 256.384 537.088 254.976V236.544L543.904 237.36L543.088 255.456V255.744C543.088 256.928 543.392 258.16 544 259.44C544.64 260.72 545.552 261.904 546.736 262.992L542.128 264.48ZM568.688 264.624V246.72C568.688 245.12 568.192 243.904 567.2 243.072C566.24 242.208 565.072 241.776 563.696 241.776C562.32 241.776 561.056 242.144 559.904 242.88C558.784 243.616 558 244.688 557.552 246.096V264L551.696 264.624L550.736 236.544L557.552 237.36V240.48C558.192 239.264 559.136 238.352 560.384 237.744C561.664 237.104 563.408 236.784 565.616 236.784C567.568 236.784 569.28 237.2 570.752 238.032C572.256 238.864 573.408 240 574.208 241.44C575.04 242.848 575.408 244.448 575.312 246.24L574.352 264L568.688 264.624ZM594.433 264.528C590.721 264.528 588.033 263.792 586.369 262.32C584.705 260.848 583.873 258.72 583.873 255.936V241.824H580.225L579.265 238.128L583.873 237.648V229.008L590.641 229.968L590.401 236.976L595.201 236.496V241.824H590.209L589.729 255.072V255.552C589.729 257.12 590.129 258.368 590.929 259.296C591.761 260.192 593.249 260.64 595.393 260.64L594.433 264.528ZM624.127 259.296C623.199 260.544 622.207 261.552 621.151 262.32C620.127 263.088 618.943 263.648 617.599 264C616.255 264.352 614.607 264.528 612.655 264.528C609.871 264.528 607.487 263.92 605.503 262.704C603.519 261.456 601.999 259.792 600.943 257.712C599.887 255.6 599.359 253.248 599.359 250.656C599.359 248.032 599.903 245.68 600.991 243.6C602.079 241.488 603.599 239.824 605.551 238.608C607.535 237.392 609.839 236.784 612.463 236.784C615.023 236.784 617.215 237.376 619.039 238.56C620.895 239.712 622.319 241.376 623.311 243.552C624.303 245.696 624.799 248.256 624.799 251.232V252.048H607.423L606.367 248.304L618.175 247.344C618.079 245.648 617.599 244.272 616.735 243.216C615.903 242.128 614.559 241.584 612.703 241.584C610.559 241.584 608.783 242.384 607.375 243.984C605.999 245.552 605.311 247.792 605.311 250.704C605.311 252.784 605.695 254.512 606.463 255.888C607.263 257.232 608.255 258.24 609.439 258.912C610.655 259.552 611.871 259.872 613.087 259.872C615.135 259.872 616.959 259.536 618.559 258.864C620.191 258.16 621.471 257.216 622.399 256.032L624.127 259.296ZM631.149 264.672L630.189 236.544L637.005 237.36V240.096C637.613 239.328 638.221 238.704 638.829 238.224C639.469 237.744 640.269 237.392 641.229 237.168C642.189 236.944 643.453 236.816 645.021 236.784L646.125 242.64C645.069 242.448 644.109 242.352 643.245 242.352C640.013 242.352 637.933 243.648 637.005 246.24V264L631.149 264.672Z" fill="black"/>
</svg>
