<svg width="62" height="62" viewBox="0 0 62 62" fill="none" xmlns="http://www.w3.org/2000/svg">
<g filter="url(#filter0_d_341_591)">
<rect x="1" width="60" height="60" rx="8" fill="white"/>
</g>
<path d="M13.0215 24.2031H14.665L18.8574 34.6357L23.041 24.2031H24.6934L19.4902 37H18.207L13.0215 24.2031ZM12.4854 24.2031H13.9355L14.1729 32.0078V37H12.4854V24.2031ZM23.7705 24.2031H25.2207V37H23.5332V32.0078L23.7705 24.2031ZM32.3311 35.0576L36.1016 24.2031H37.9385L33.2012 37H31.8916L32.3311 35.0576ZM28.8066 24.2031L32.542 35.0576L33.0078 37H31.6982L26.9697 24.2031H28.8066ZM47.2637 32.9307H48.9512C48.8633 33.7393 48.6318 34.4629 48.2568 35.1016C47.8818 35.7402 47.3516 36.2471 46.666 36.6221C45.9805 36.9912 45.125 37.1758 44.0996 37.1758C43.3496 37.1758 42.667 37.0352 42.0518 36.7539C41.4424 36.4727 40.918 36.0742 40.4785 35.5586C40.0391 35.0371 39.6992 34.4131 39.459 33.6865C39.2246 32.9541 39.1074 32.1396 39.1074 31.2432V29.9688C39.1074 29.0723 39.2246 28.2607 39.459 27.5342C39.6992 26.8018 40.042 26.1748 40.4873 25.6533C40.9385 25.1318 41.4805 24.7305 42.1133 24.4492C42.7461 24.168 43.458 24.0273 44.249 24.0273C45.2158 24.0273 46.0332 24.209 46.7012 24.5723C47.3691 24.9355 47.8877 25.4395 48.2568 26.084C48.6318 26.7227 48.8633 27.4639 48.9512 28.3076H47.2637C47.1816 27.71 47.0293 27.1973 46.8066 26.7695C46.584 26.3359 46.2676 26.002 45.8574 25.7676C45.4473 25.5332 44.9111 25.416 44.249 25.416C43.6807 25.416 43.1797 25.5244 42.7461 25.7412C42.3184 25.958 41.958 26.2656 41.665 26.6641C41.3779 27.0625 41.1611 27.54 41.0146 28.0967C40.8682 28.6533 40.7949 29.2715 40.7949 29.9512V31.2432C40.7949 31.8701 40.8594 32.459 40.9883 33.0098C41.123 33.5605 41.3252 34.0439 41.5947 34.46C41.8643 34.876 42.207 35.2041 42.623 35.4443C43.0391 35.6787 43.5312 35.7959 44.0996 35.7959C44.8203 35.7959 45.3945 35.6816 45.8223 35.4531C46.25 35.2246 46.5723 34.8965 46.7891 34.4688C47.0117 34.041 47.1699 33.5283 47.2637 32.9307Z" fill="black"/>
<defs>
<filter id="filter0_d_341_591" x="0" y="0" width="62" height="62" filterUnits="userSpaceOnUse" color-interpolation-filters="sRGB">
<feFlood flood-opacity="0" result="BackgroundImageFix"/>
<feColorMatrix in="SourceAlpha" type="matrix" values="0 0 0 0 0 0 0 0 0 0 0 0 0 0 0 0 0 0 127 0" result="hardAlpha"/>
<feOffset dy="1"/>
<feGaussianBlur stdDeviation="0.5"/>
<feComposite in2="hardAlpha" operator="out"/>
<feColorMatrix type="matrix" values="0 0 0 0 0 0 0 0 0 0 0 0 0 0 0 0 0 0 0.25 0"/>
<feBlend mode="normal" in2="BackgroundImageFix" result="effect1_dropShadow_341_591"/>
<feBlend mode="normal" in="SourceGraphic" in2="effect1_dropShadow_341_591" result="shape"/>
</filter>
</defs>
</svg>
